<svg xmlns="http://www.w3.org/2000/svg" width="1em" height="1em" viewBox="0 0 24 24"><g fill="none"><path fill="currentColor" fill-rule="evenodd" d="M17.586 2a2 2 0 0 1 2.828 0L22 3.586a2 2 0 0 1 0 2.828L20.414 8L16 3.586zm-3 3l-5 5A2 2 0 0 0 9 11.414V13a2 2 0 0 0 2 2h1.586A2 2 0 0 0 14 14.414l5-5z" clip-rule="evenodd"/><path stroke="currentColor" stroke-linecap="round" stroke-linejoin="round" stroke-width="2" d="M6 14H5a2 2 0 0 0-2 2v0a2 2 0 0 0 2 2h14a2 2 0 0 1 2 2v0a2 2 0 0 1-2 2h-4"/></g></svg>